<svg width="587" height="430" viewBox="0 0 587 430" fill="none" xmlns="http://www.w3.org/2000/svg">
<path d="M363.399 11.412C363.399 11.412 377.057 -28.2667 398.765 -43.1563C398.765 -43.1563 385.321 -53.3509 365.519 -53.968C345.742 -54.6119 330.769 -45.3294 330.769 -45.3294C352.826 -27.8375 363.426 11.4388 363.426 11.4388L363.399 11.412ZM367.665 51.1443C365.331 39.6619 363.426 33.3305 363.426 33.3305C363.426 33.3305 361.977 39.9838 360.42 51.2248C359.615 56.8318 358.005 63.6462 356.851 71.3458C355.563 79.0723 353.497 87.7378 351.834 97.1276C350.921 101.822 349.714 106.705 348.64 111.722C347.46 116.766 346.628 121.997 345.125 127.282C342.388 137.906 339.651 149.067 335.948 160.442C332.701 171.897 328.301 183.407 324.276 195.211C322.21 201.086 319.714 206.854 317.433 212.73C315.126 218.578 312.818 224.453 310.108 230.141C307.505 235.855 304.929 241.597 302.353 247.311C299.562 252.891 296.772 258.445 294.035 263.971C292.639 266.708 291.271 269.444 289.902 272.181C288.4 274.81 286.897 277.439 285.421 280.068C282.47 285.273 279.545 290.424 276.647 295.467C273.507 300.323 270.395 305.099 267.389 309.767C265.887 312.101 264.384 314.408 262.935 316.661C261.325 318.835 259.769 320.981 258.212 323.1C255.1 327.312 252.094 331.417 249.196 335.387C246.352 339.412 243.105 342.792 240.288 346.306C237.39 349.74 234.653 353.067 232.023 356.206C230.386 357.843 228.911 359.318 227.381 360.874C247.64 361.786 267.363 366.588 285.743 374.932C287.944 371.874 290.198 368.762 292.183 365.408C295.054 360.606 298.006 355.616 301.038 350.518C302.541 347.97 304.044 345.367 305.573 342.738C306.942 340.029 308.337 337.319 309.732 334.556C312.523 329.056 315.367 323.422 318.265 317.708C320.814 311.886 323.417 305.93 326.047 299.921C327.362 296.916 328.677 293.911 329.991 290.88C331.145 287.794 332.326 284.682 333.506 281.57C335.814 275.346 338.175 269.069 340.51 262.791C342.522 256.379 344.535 249.967 346.547 243.555C348.667 237.17 350.358 230.678 352.021 224.212C353.658 217.746 355.51 211.388 356.932 204.95C359.723 192.072 362.513 179.463 364.311 167.095C366.538 154.808 367.826 142.789 369.168 131.467C370.456 120.119 370.885 109.254 371.341 99.3275C371.127 89.2938 371.341 80.1991 370.429 72.0702C369.597 63.9681 368.9 56.966 367.746 51.2248L367.665 51.1443ZM140.012 40.5472C142.239 38.5888 144.466 36.3084 147.016 34.4304C149.511 32.5256 152.114 30.5404 154.743 28.5551C157.319 26.4893 160.137 24.665 162.928 22.8675C165.745 21.0701 168.455 19.1653 171.273 17.5288C174.117 15.9191 176.908 14.3631 179.618 12.8607C182.274 11.2778 185.065 10.0974 187.587 8.8633C190.19 7.70969 192.498 6.39512 194.859 5.59027C197.167 4.70495 199.26 3.90011 201.138 3.17575C202.963 2.39774 204.734 2.07581 206.075 1.67338C208.812 0.922199 210.396 0.492947 210.396 0.492947C210.396 0.492947 208.92 1.2173 206.371 2.45139C205.109 3.1221 203.526 3.71231 201.889 4.81227C200.226 5.85856 198.348 7.01217 196.281 8.29991C194.188 9.48034 192.176 11.1973 189.922 12.7802C187.722 14.4435 185.307 16.0264 183.053 18.0385C180.772 19.9701 178.384 21.9554 175.995 23.9675C173.661 26.0332 171.407 28.3405 169.099 30.5135C168.885 30.7282 168.67 30.9428 168.455 31.1306C177.686 27.9649 186.729 26.0332 195.664 24.9333C197.247 23.7529 198.83 22.6261 200.44 21.4993C203.177 19.6213 205.834 17.6092 208.598 15.8654C211.388 14.1753 214.125 12.5119 216.782 10.9022C219.385 9.2389 222.122 7.97798 224.617 6.63657C227.166 5.37566 229.447 4.00742 231.755 3.1221C234.036 2.15628 236.102 1.27096 237.953 0.492947C239.751 -0.365551 241.495 -0.714314 242.837 -1.19722C245.574 -2.02888 247.103 -2.51179 247.103 -2.51179C247.103 -2.51179 245.654 -1.76061 243.159 -0.419205C241.925 0.278324 240.342 0.922199 238.758 2.10263C237.122 3.17575 235.297 4.40985 233.284 5.75125C231.245 7.01217 229.259 8.78282 227.086 10.4462C224.939 12.19 222.578 13.8533 220.404 15.9459C218.177 17.958 215.87 20.0238 213.535 22.1432C212.998 22.6529 212.489 23.2163 211.979 23.726C217.56 23.6187 223.088 23.7529 228.589 24.0748C237.122 17.5556 245.654 11.8144 252.577 7.68287C256.79 5.21468 260.305 3.25624 262.908 2.10263C265.457 0.868542 266.987 0.385639 266.987 0.385639C266.987 0.385639 265.565 1.13682 263.338 2.82699C261.057 4.43667 257.998 7.01217 254.402 10.1779C249.921 14.1753 244.742 19.2726 239.483 24.8528C243.508 25.2016 247.506 25.6308 251.531 26.0601C256.012 23.3236 260.574 20.775 264.921 18.4677C270.046 15.6508 275.171 13.5314 279.357 11.5461C283.811 9.93642 287.273 8.24625 290.01 7.70969C292.639 7.06582 294.142 6.69023 294.142 6.69023C294.142 6.69023 292.747 7.36093 290.305 8.51453C287.863 9.48034 284.724 11.8949 280.833 14.2289C277.13 17.019 272.702 19.9701 268.302 23.6724C266.853 24.8528 265.35 26.1406 263.847 27.4015C268.436 27.9112 273.024 28.3673 277.586 28.7965C305.466 11.3315 338.122 7.60238 358.193 17.9044C358.274 17.8775 358.327 17.8507 358.408 17.8239C339.624 -39.1857 202.05 -70.6282 132.982 47.0933C133.277 46.7713 133.492 46.5567 133.787 46.2348C135.719 44.4641 137.839 42.5593 140.039 40.5204L140.012 40.5472ZM368.47 16.402C395.679 4.78544 438.612 15.463 466.358 51.8687C472.073 53.5857 477.842 55.3831 483.585 57.2879C480.901 52.8613 477.842 48.381 474.649 43.8739C467.19 33.7061 458.871 24.048 452.19 17.2068C448.836 13.8265 445.938 11.0364 443.791 9.26572C441.671 7.44141 440.303 6.58292 440.303 6.58292C440.303 6.58292 441.832 7.14631 444.274 8.56819C446.77 9.9096 450.151 12.1095 454.176 14.846C462.172 20.3725 472.368 28.4209 482.002 37.3279C486.751 41.835 491.474 46.4762 495.579 51.1711C499.792 55.8124 503.441 60.4805 506.393 64.7461C506.608 65.0144 506.769 65.3095 506.983 65.6046C512.726 67.8582 518.387 70.3264 523.969 72.9019C521.956 68.5825 519.702 64.1827 517.287 59.7293C511.089 48.7566 503.978 38.1595 498.155 30.594C495.203 26.8381 492.681 23.726 490.749 21.7139C488.871 19.6482 487.61 18.6287 487.61 18.6287C487.61 18.6287 489.032 19.3799 491.313 21.0701C493.647 22.7066 496.733 25.2821 500.409 28.4746C507.681 34.9133 516.858 44.1154 525.364 54.0954C529.55 59.1391 533.682 64.29 537.198 69.4679C540.82 74.5652 543.906 79.6625 546.321 84.2233C546.428 84.3842 546.482 84.5721 546.589 84.733C551.822 87.8451 556.947 91.1718 561.884 94.7667C561.186 92.9961 560.435 91.2522 559.737 89.4279C557.483 83.5526 554.854 77.865 552.305 72.5263C549.836 67.107 547.018 62.4121 544.818 58.1732C542.215 54.31 540.364 50.6346 538.459 48.703C536.634 46.6104 535.588 45.4031 535.588 45.4031C535.588 45.4031 536.849 46.3689 539.049 48.0859C541.437 49.7493 543.852 52.8881 547.287 56.3489C550.265 60.078 554.076 64.3437 557.591 69.2532C561.186 74.1091 564.997 79.3406 568.431 84.8403C570.176 87.5768 572.081 90.2059 573.61 93.0229C575.22 95.813 576.803 98.5495 578.333 101.205C581.311 106.115 583.539 111.481 585.739 115.907C586.141 116.363 586.597 116.739 587 117.168C555.578 -52.1973 393.935 -38.3004 368.497 16.402H368.47ZM377.137 23.5382C375.313 23.9138 373.488 24.3967 371.717 24.987C372.71 32.9817 374.159 40.1716 376.037 46.7177C383.497 72.9287 397.289 88.7304 411.538 104.639C410.84 95.9203 409.793 87.6304 408.613 81.0039C408.559 80.7088 408.505 80.4674 408.452 80.1991C407.647 75.8798 406.869 72.2311 406.117 69.7093C405.42 66.9997 404.749 65.5241 404.749 65.5241C404.749 65.5241 405.688 66.8387 406.895 69.3874C408.21 71.9092 409.767 75.6383 411.564 80.1454C411.94 81.1112 412.342 82.2648 412.718 83.3111C415.911 92.0034 419.292 102.949 421.922 114.378C422.137 115.29 422.298 116.202 422.485 117.114C425.974 121.273 429.408 125.565 432.682 130.233C433.272 119.878 433.272 109.737 432.843 101.849C432.736 100.213 432.628 98.7104 432.494 97.2617C432.253 94.5253 432.011 92.1376 431.689 90.3669C431.314 87.5768 430.831 86.0476 430.831 86.0476C430.831 86.0476 431.582 87.4695 432.521 90.1523C433.38 92.4059 434.292 95.5715 435.312 99.3275C435.5 99.9982 435.687 100.669 435.875 101.393C438.263 110.81 440.678 123.58 442.101 136.618C442.449 140.213 442.718 143.835 442.932 147.43C445.991 153.547 448.728 160.227 451.063 167.766C451.385 164.949 451.814 162.132 451.975 159.315C452.163 156.203 452.351 153.118 452.539 150.14C452.941 144.184 452.753 138.631 452.834 133.802C452.485 129.08 452.566 124.975 451.975 122.292C451.519 119.502 451.251 117.919 451.251 117.919C451.251 117.919 451.814 119.422 452.807 122.078C453.934 124.76 454.605 128.704 455.893 133.453C456.751 138.201 458.013 143.808 458.764 149.845C459.167 152.876 459.569 156.015 459.971 159.208C460.401 162.4 460.508 165.673 460.776 168.946C460.964 172.219 461.394 175.492 461.34 178.739C461.34 182.012 461.34 185.231 461.367 188.316C461.394 189.121 461.367 189.899 461.367 190.704C467.565 170.234 470.41 151.481 470.678 134.472C471.322 92.7278 456.242 61.7682 435.983 43.0691C417.924 26.4088 395.813 19.514 377.137 23.4846V23.5382ZM322.666 64.3705C321.941 67.4826 321.029 70.9971 320.197 74.6725C319.822 76.309 319.419 77.8919 319.124 79.6357C318.185 84.4111 317.326 89.4548 316.682 94.5521C330.367 81.5405 342.71 67.1875 349.419 44.947C351.243 38.9107 352.692 32.3378 353.578 25.0138C351.029 24.1553 348.345 23.5382 345.608 23.0822C332.809 20.9896 317.997 23.3504 303.668 30.0306C270.341 45.5104 239.671 84.1428 243.213 143.567C244.152 159.53 247.586 177.022 254.107 195.935C253.865 193.118 253.517 188.665 253.06 183.111C253.087 180.482 253.141 177.612 253.195 174.607C253.302 171.602 253.248 168.437 253.517 165.271C254.375 159.02 254.724 152.393 256.146 145.901C256.79 142.682 257.407 139.435 258.051 136.243C258.749 133.077 259.661 130.019 260.44 127.041C261.379 123.043 262.613 119.422 263.794 116.015C264.384 114.324 264.974 112.607 265.457 111.078C266.316 108.798 267.282 106.732 268.033 104.908C268.812 103.083 269.429 101.474 270.234 100.266C271.656 97.7983 272.461 96.4032 272.461 96.4032C272.461 96.4032 271.924 97.9324 271.012 100.588C270.502 101.876 270.153 103.566 269.751 105.471C269.402 107.242 268.919 109.227 268.543 111.373C268.516 111.561 268.463 111.695 268.436 111.883C267.846 116.685 266.826 122.131 266.558 128.141C266.37 131.119 266.048 134.177 265.994 137.289C265.994 140.401 265.994 143.567 265.967 146.733C265.914 149.013 266.021 151.267 266.155 153.52C269.885 145.525 274.232 138.604 278.981 132.38C279.947 127.229 281.155 122.024 282.497 116.819C284.59 109.147 287.031 101.715 289.473 95.0082C291.056 90.6352 292.666 86.5305 294.169 82.9892C296.128 78.5357 297.845 74.8871 299.267 72.4189C300.582 69.9239 301.575 68.6362 301.575 68.6362C301.575 68.6362 300.85 70.0849 300.045 72.7677C299.16 75.3969 298.167 79.2869 297.121 83.955C296.664 86.1013 296.181 88.4621 295.752 90.9035C294.303 98.7909 293.042 108.02 292.317 117.329C295.886 113.788 299.509 110.381 303.158 107.054C303.426 106.088 303.668 105.122 303.909 104.13C304.607 101.071 305.788 98.147 306.754 95.1155C308.364 89.9645 310.296 85.0013 312.228 80.2527C312.55 79.4479 312.872 78.6162 313.194 77.8114C315.34 72.3385 317.89 67.4558 319.848 63.2438C322.237 59.1659 323.793 55.6246 325.564 53.4783C327.174 51.3053 328.059 50.0444 328.059 50.0444C328.059 50.0444 327.415 51.4394 326.288 53.9076C325.027 56.2148 324.169 60.1049 322.693 64.3705H322.666ZM96.4886 81.8624C96.4886 81.8624 81.1131 80.682 67.5087 91.3059C56.4802 99.9445 49.7719 116.122 49.7719 116.122C69.87 117.892 92.9466 133.641 92.9466 133.641C92.9466 133.641 86.4261 104.908 96.4617 81.8624H96.4886ZM198.535 294.153C196.979 289.726 195.423 285.246 193.866 280.766C192.069 276.393 190.244 271.993 188.419 267.593C184.85 258.82 180.584 250.316 176.586 241.945C172.239 233.709 168.133 225.553 163.545 217.988C159.225 210.288 154.529 203.152 150.155 196.365C145.754 189.604 141.112 183.487 136.873 177.88C132.23 172.514 128.232 167.471 124.073 163.473C119.968 159.422 116.426 155.935 113.206 153.332C106.739 148.155 102.848 145.552 102.848 145.552C102.848 145.552 105.048 149.818 109.288 156.659C111.381 160.066 113.581 164.52 116.426 169.241C119.189 174.017 122.007 179.651 125.307 185.526C128.42 191.562 131.882 198.001 135.289 204.95C138.617 211.952 142.186 219.249 145.325 227.083C148.733 234.782 151.604 243.019 154.69 251.255C157.427 259.625 160.405 268.076 162.659 276.688L166.148 289.538C167.14 293.831 168.133 298.123 169.126 302.362C171.3 310.786 172.292 319.291 173.876 327.339C174.654 335.495 176.103 343.302 176.291 350.706C176.613 356.367 176.881 361.652 176.935 366.723C188.983 363.289 201.406 361.277 214.018 360.767C213.481 356.072 212.784 351.27 211.925 346.28C210.771 337.936 208.356 329.512 206.478 320.659C203.848 312.02 201.755 302.926 198.482 294.126L198.535 294.153ZM93.0807 139.57C93.0807 139.57 93.1344 139.462 93.1612 139.409C49.7988 115.532 -19.4042 156.418 5.12142 255.896C5.14825 255.762 5.17509 255.655 5.20192 255.547C5.12142 254.447 5.06775 253.32 5.09458 252.194C5.22875 247.74 5.04092 243.019 5.63125 238.297C5.92641 233.602 6.62408 228.961 7.37541 224.641C7.64374 222.495 8.23407 220.429 8.63657 218.471C9.11957 216.512 9.3879 214.661 10.0051 212.998C11.0247 209.671 11.8297 206.881 12.7421 205.057C13.5471 203.206 13.9764 202.159 13.9764 202.159C13.9764 202.159 13.7349 203.286 13.3056 205.245C12.7689 207.149 12.5274 210.02 12.1517 213.4C11.8834 215.064 11.9639 216.942 11.8566 218.9C11.8029 220.859 11.6419 222.897 11.7761 225.017C11.8297 228.183 12.0176 231.509 12.3127 234.863C14.7009 229.39 17.3037 224.534 20.0675 220.161C20.3359 217.881 20.9262 215.627 21.3287 213.347C22.1337 208.786 23.3412 204.332 24.4413 200.174C25.5147 196.016 26.8832 192.233 27.9297 188.96C29.2445 185.767 30.0763 183.058 31.0692 181.287C31.9546 179.517 32.4913 178.497 32.4913 178.497C32.4913 178.497 32.1693 179.597 31.6326 181.502C31.0155 183.353 30.6935 186.224 30.0495 189.497C29.647 192.877 29.0567 196.74 28.7883 200.952C28.6005 203.554 28.4395 206.264 28.3322 209.001C31.0155 205.888 33.7793 203.045 36.5968 200.362C36.9725 199.074 37.3481 197.813 37.697 196.526C38.8508 192.233 40.3534 188.021 41.7756 184.131C43.1441 180.214 44.8078 176.7 46.0689 173.668C47.6521 170.717 48.6449 168.195 49.8524 166.612C50.9257 165.029 51.5429 164.117 51.5429 164.117C51.5429 164.117 51.1136 165.137 50.3891 166.881C49.5841 168.571 49.0743 171.307 48.1351 174.392C47.5179 177.585 46.5788 181.26 46.0421 185.258C45.6664 187.753 45.3176 190.355 45.0224 192.957C47.5448 190.865 50.1207 188.826 52.6699 186.787C59.0294 162.266 76.3636 143.218 93.0807 139.516V139.57ZM147.096 107.269C150.558 104.478 154.046 101.662 157.615 98.8714C156.863 98.7373 156.085 98.5763 155.361 98.4422C151.228 97.6373 147.311 97.2349 143.957 96.7788C140.602 96.591 137.758 96.1618 135.799 96.2959C133.814 96.3227 132.687 96.3764 132.687 96.3764C132.687 96.3764 133.787 96.1349 135.746 95.7057C137.731 95.196 140.549 95.0618 143.983 94.6057C147.391 94.418 151.416 94.0692 155.71 94.0692C158.312 94.0692 161.022 94.0692 163.786 94.1497C166.926 91.7888 170.092 89.4816 173.312 87.2549C169.555 86.1013 165.96 85.2696 162.901 84.4379C159.6 83.8477 156.837 83.0697 154.878 82.9892C152.892 82.7746 151.765 82.6673 151.765 82.6673C151.765 82.6673 152.892 82.56 154.878 82.3721C156.89 82.1039 159.708 82.3185 163.169 82.2648C166.577 82.5063 170.602 82.6136 174.895 83.1233C176.183 83.2843 177.525 83.4453 178.84 83.6062C182.435 81.3527 186.138 79.2601 189.895 77.3553C187.534 76.631 185.226 75.9603 183.187 75.3432C179.913 74.6457 177.149 73.7872 175.19 73.653C173.205 73.4116 172.078 73.3043 172.078 73.3043C172.078 73.3043 173.232 73.2238 175.217 73.0628C177.257 72.8214 180.047 73.1433 183.536 73.197C186.943 73.5457 190.968 73.7872 195.235 74.4579C195.45 74.4847 195.637 74.5384 195.852 74.5652C196.684 74.2164 197.543 73.8677 198.374 73.5457C201.353 72.3653 204.358 71.3458 207.471 70.5142C207.605 70.4873 207.739 70.4605 207.873 70.4068C207.766 70.38 207.659 70.3264 207.578 70.2727C206.666 69.9239 205.78 69.6288 204.922 69.2801C203.553 68.7972 202.265 68.2338 201.058 67.9387C198.616 67.2948 196.577 66.5973 195.101 66.5168C193.625 66.3022 192.766 66.1948 192.766 66.1948C192.766 66.1948 193.625 66.0875 195.101 65.8997C196.63 65.6046 198.777 65.7656 201.406 65.7924C202.721 65.7924 204.117 66.007 205.619 66.1143C206.719 66.2485 207.927 66.3826 209.134 66.5168C209.537 66.5704 209.913 66.5704 210.315 66.6509C213.079 67.107 215.977 67.5899 218.902 68.2606C219.197 68.2338 219.492 68.2069 219.787 68.1801C222.417 67.9118 225.073 67.7509 227.81 67.7509C231.326 67.7509 234.948 68.0191 238.651 68.5557C235.646 67.1338 232.667 65.8461 229.716 64.6656C224.054 62.4121 218.499 60.6414 213.052 59.2464C212.328 59.0586 211.603 58.8976 210.879 58.7366C205.566 57.4757 200.387 56.6172 195.315 56.1343C192.015 55.8124 188.768 55.5978 185.602 55.5709C177.096 55.4904 169.019 56.4563 161.452 58.2001C154.287 59.8634 147.579 62.2243 141.407 65.1754C139.475 66.1144 137.597 67.0802 135.772 68.0996C107.329 84.2233 92.0879 112.554 98.0181 134.043C105.451 119.529 124.234 108.073 147.123 107.215L147.096 107.269ZM236.88 190.892C231.862 177.343 225.744 165.942 218.902 156.471C193.518 121.273 158.232 112.581 132.606 118.536C121.47 121.112 112.159 126.504 106.283 133.641C105.317 134.821 104.431 136.001 103.653 137.262C107.946 141.313 112.213 144.613 116.426 147.323C130.781 156.579 144.788 158.939 158.983 160.415C158.5 159.905 157.99 159.395 157.48 158.913C154.502 155.908 151.497 153.386 149.001 151.106C148.84 150.971 148.706 150.864 148.545 150.73C146.13 148.825 144.118 147.028 142.534 146.116C140.871 145.042 139.905 144.399 139.905 144.399C139.905 144.399 140.951 144.828 142.803 145.579C144.735 146.25 147.123 147.752 150.209 149.308C150.826 149.684 151.577 150.113 152.248 150.515C154.717 151.991 157.427 153.547 160.217 155.452C162.928 157.276 165.799 159.261 168.589 161.327C172.722 161.73 176.881 162.186 181.067 162.803C180.396 161.971 179.725 161.086 179.081 160.254C176.478 156.927 173.795 154.057 171.568 151.508C170.736 150.703 169.985 149.898 169.26 149.174C167.919 147.779 166.765 146.572 165.745 145.82C164.216 144.56 163.357 143.808 163.357 143.808C163.357 143.808 164.35 144.345 166.094 145.311C167.623 146.062 169.502 147.484 171.756 149.013C172.185 149.308 172.561 149.576 173.044 149.898C175.727 151.991 179.001 154.352 182.248 157.196C184.904 159.476 187.722 161.971 190.432 164.573C194.886 165.593 199.421 166.934 204.009 168.785C201.567 165.405 198.992 162.508 196.925 159.905C194.591 157.518 192.793 155.237 191.264 154.03C189.761 152.715 188.902 151.991 188.902 151.991C188.902 151.991 189.895 152.554 191.612 153.547C193.437 154.486 195.584 156.337 198.428 158.322C201.058 160.522 204.251 162.99 207.39 165.942C210.476 168.785 213.75 171.817 216.809 175.117C223.329 179.034 230.011 184.104 236.907 190.838L236.88 190.892ZM110.388 276.822C108.054 273.898 105.263 270.517 102.58 266.895C100.245 263.113 97.4277 259.33 95.2811 255.172C93.0002 251.094 90.8268 246.989 89.1094 242.992C87.8214 240.389 86.8554 237.868 85.9431 235.48C85.5138 234.299 85.0576 233.092 84.6283 232.046C83.6355 228.719 82.6695 226.036 82.3475 223.997C81.9986 222.039 81.8108 220.885 81.8108 220.885C81.8108 220.885 82.2133 221.958 82.9109 223.81C83.5281 225.58 84.9503 227.968 86.4261 230.785C86.4798 230.892 86.5334 231 86.5871 231.107C88.4386 233.977 90.3438 237.411 92.8929 240.792C95.2542 244.279 98.0717 247.794 100.943 251.201C101.909 252.435 103.009 253.562 104.056 254.689C102.472 248.652 101.748 242.911 101.533 237.385C100.862 236.151 100.192 234.943 99.4939 233.682C98.3669 231.697 97.5082 229.497 96.5154 227.431C94.5029 223.273 92.8392 218.954 91.3097 214.93C90.9609 214.071 90.7194 213.239 90.4243 212.408C89.3509 209.322 88.4118 206.345 87.5531 203.796C86.7481 200.442 85.8089 197.76 85.5943 195.747C85.2723 193.789 85.1113 192.662 85.1113 192.662C85.1113 192.662 85.5138 193.709 86.1846 195.587C86.7749 197.438 88.1971 199.96 89.5924 202.991C90.3438 204.332 91.1488 205.835 91.9806 207.337C92.9734 209.161 94.0467 211.066 95.2811 212.998C97.3741 216.325 99.5744 219.839 102.016 223.193C102.338 219.705 102.794 216.244 103.277 212.837C102.982 212.193 102.687 211.576 102.392 210.932C101.399 208.947 100.701 206.801 99.8696 204.735C98.4206 201.22 97.2399 197.625 96.1397 194.165C95.9519 193.574 95.7372 192.984 95.5762 192.394C94.2614 188.477 93.4564 184.641 92.6246 181.475C92.0879 178.175 91.3366 175.573 91.3366 173.588C91.2024 171.683 91.1488 170.583 91.1488 170.583C91.1488 170.583 91.4439 171.629 91.9269 173.48C92.3026 175.305 93.5637 177.8 94.6907 180.804C95.6836 182.843 96.7837 185.15 97.9912 187.538C98.5279 188.584 99.0377 189.631 99.6549 190.731C101.292 193.735 103.09 196.874 105.048 199.933C106.632 186.68 106.873 173.319 100.487 158.188C98.7426 154.084 96.5691 149.845 93.7516 145.445C92.0611 146.089 90.4243 146.92 88.8143 147.833C79.7715 153.037 71.9093 162.588 67.1062 174.741C57.9024 198.055 60.0759 230.731 87.1774 259.732C94.9054 267.995 104.673 275.963 116.748 283.314C115.352 281.892 113.206 279.692 110.388 276.822ZM277.828 386.012C259.983 378.312 240.583 374.047 220.27 374.047C218.58 374.047 216.943 374.154 215.252 374.208C214.743 374.208 214.26 374.234 213.75 374.261C201.058 374.825 188.714 376.998 176.961 380.7C146.747 390.197 120.182 409.352 100.111 435H340.456C323.605 413.484 302.138 396.555 277.828 386.066V386.012Z" fill="#00AE00"/>
</svg>
